<?xml version="1.0" encoding="UTF-8" standalone="no"?>
<!DOCTYPE svg PUBLIC "-//W3C//DTD SVG 1.1//EN" "http://www.w3.org/Graphics/SVG/1.1/DTD/svg11.dtd">
<svg xmlns="http://www.w3.org/2000/svg" version="1.1" viewBox="0.00 0.00 1024.00 1024.00">
<g stroke-width="2.00" fill="none" stroke-linecap="butt">
<path stroke="#7c7b79" vector-effect="non-scaling-stroke" d="
  M 330.65 657.57
  Q 336.83 684.29 351.54 705.85
  C 370.87 734.18 400.95 754.61 433.85 765.42
  C 465.22 775.74 500.38 778.52 534.25 775.58
  C 566.16 772.81 598.65 763.00 625.89 744.93
  Q 655.29 725.44 672.39 695.15
  C 689.94 664.04 696.98 628.91 696.98 593.24
  Q 697.03 331.43 696.98 262.12
  A 0.39 0.39 0.0 0 0 696.59 261.73
  L 628.64 261.73
  A 0.44 0.44 0.0 0 0 628.20 262.17
  L 628.20 314.88
  A 0.13 0.13 0.0 0 1 627.97 314.96
  Q 613.46 295.62 592.45 282.78
  C 561.74 264.00 527.45 257.51 491.18 259.11
  C 472.08 259.95 454.03 262.93 436.36 269.37
  Q 382.28 289.07 350.65 336.63
  Q 331.28 365.74 322.56 399.72
  C 318.86 414.11 317.52 428.74 317.21 444.25
  Q 317.19 445.00 317.62 458.60
  Q 317.91 467.62 318.71 472.92
  Q 322.92 500.78 331.13 521.42
  C 348.28 564.53 385.17 603.29 429.33 620.94
  C 450.06 629.22 472.36 634.15 494.75 634.22
  Q 504.59 634.25 512.70 633.94
  Q 569.08 631.76 610.31 594.33
  Q 621.35 584.31 628.94 572.46
  A 0.28 0.28 0.0 0 1 629.45 572.60
  C 630.46 606.23 628.56 640.11 610.22 669.73
  C 595.12 694.13 569.07 706.50 541.67 711.22
  Q 503.43 717.83 466.65 710.65
  Q 449.40 707.28 436.87 701.39
  Q 416.08 691.61 398.34 671.67
  Q 393.48 666.22 388.63 657.91
  A 1.66 1.66 0.0 0 0 387.20 657.09
  L 331.04 657.09
  A 0.40 0.39 -6.4 0 0 330.65 657.57"
/>
<path stroke="#7c7b79" vector-effect="non-scaling-stroke" d="
  M 581.36 340.39
  Q 569.71 332.35 553.28 326.46
  Q 535.62 320.13 518.00 319.00
  Q 478.11 316.45 443.13 335.86
  C 389.04 365.88 372.85 439.27 393.64 494.39
  Q 409.65 536.87 448.23 558.51
  C 460.46 565.37 475.17 570.31 488.24 572.25
  C 519.31 576.85 552.52 571.23 578.41 553.99
  C 609.48 533.28 627.92 498.33 631.54 461.52
  Q 633.28 443.80 631.17 425.77
  C 627.18 391.68 609.71 359.97 581.36 340.39"
/>
</g>
<path fill="#e4e3df" d="
  M 1024.00 0.00
  L 1024.00 1024.00
  L 0.00 1024.00
  L 0.00 0.00
  L 1024.00 0.00
  Z
  M 330.65 657.57
  Q 336.83 684.29 351.54 705.85
  C 370.87 734.18 400.95 754.61 433.85 765.42
  C 465.22 775.74 500.38 778.52 534.25 775.58
  C 566.16 772.81 598.65 763.00 625.89 744.93
  Q 655.29 725.44 672.39 695.15
  C 689.94 664.04 696.98 628.91 696.98 593.24
  Q 697.03 331.43 696.98 262.12
  A 0.39 0.39 0.0 0 0 696.59 261.73
  L 628.64 261.73
  A 0.44 0.44 0.0 0 0 628.20 262.17
  L 628.20 314.88
  A 0.13 0.13 0.0 0 1 627.97 314.96
  Q 613.46 295.62 592.45 282.78
  C 561.74 264.00 527.45 257.51 491.18 259.11
  C 472.08 259.95 454.03 262.93 436.36 269.37
  Q 382.28 289.07 350.65 336.63
  Q 331.28 365.74 322.56 399.72
  C 318.86 414.11 317.52 428.74 317.21 444.25
  Q 317.19 445.00 317.62 458.60
  Q 317.91 467.62 318.71 472.92
  Q 322.92 500.78 331.13 521.42
  C 348.28 564.53 385.17 603.29 429.33 620.94
  C 450.06 629.22 472.36 634.15 494.75 634.22
  Q 504.59 634.25 512.70 633.94
  Q 569.08 631.76 610.31 594.33
  Q 621.35 584.31 628.94 572.46
  A 0.28 0.28 0.0 0 1 629.45 572.60
  C 630.46 606.23 628.56 640.11 610.22 669.73
  C 595.12 694.13 569.07 706.50 541.67 711.22
  Q 503.43 717.83 466.65 710.65
  Q 449.40 707.28 436.87 701.39
  Q 416.08 691.61 398.34 671.67
  Q 393.48 666.22 388.63 657.91
  A 1.66 1.66 0.0 0 0 387.20 657.09
  L 331.04 657.09
  A 0.40 0.39 -6.4 0 0 330.65 657.57
  Z"
/>
<path fill="#131312" d="
  M 330.65 657.57
  A 0.40 0.39 -6.4 0 1 331.04 657.09
  L 387.20 657.09
  A 1.66 1.66 0.0 0 1 388.63 657.91
  Q 393.48 666.22 398.34 671.67
  Q 416.08 691.61 436.87 701.39
  Q 449.40 707.28 466.65 710.65
  Q 503.43 717.83 541.67 711.22
  C 569.07 706.50 595.12 694.13 610.22 669.73
  C 628.56 640.11 630.46 606.23 629.45 572.60
  A 0.28 0.28 0.0 0 0 628.94 572.46
  Q 621.35 584.31 610.31 594.33
  Q 569.08 631.76 512.70 633.94
  Q 504.59 634.25 494.75 634.22
  C 472.36 634.15 450.06 629.22 429.33 620.94
  C 385.17 603.29 348.28 564.53 331.13 521.42
  Q 322.92 500.78 318.71 472.92
  Q 317.91 467.62 317.62 458.60
  Q 317.19 445.00 317.21 444.25
  C 317.52 428.74 318.86 414.11 322.56 399.72
  Q 331.28 365.74 350.65 336.63
  Q 382.28 289.07 436.36 269.37
  C 454.03 262.93 472.08 259.95 491.18 259.11
  C 527.45 257.51 561.74 264.00 592.45 282.78
  Q 613.46 295.62 627.97 314.96
  A 0.13 0.13 0.0 0 0 628.20 314.88
  L 628.20 262.17
  A 0.44 0.44 0.0 0 1 628.64 261.73
  L 696.59 261.73
  A 0.39 0.39 0.0 0 1 696.98 262.12
  Q 697.03 331.43 696.98 593.24
  C 696.98 628.91 689.94 664.04 672.39 695.15
  Q 655.29 725.44 625.89 744.93
  C 598.65 763.00 566.16 772.81 534.25 775.58
  C 500.38 778.52 465.22 775.74 433.85 765.42
  C 400.95 754.61 370.87 734.18 351.54 705.85
  Q 336.83 684.29 330.65 657.57
  Z
  M 581.36 340.39
  Q 569.71 332.35 553.28 326.46
  Q 535.62 320.13 518.00 319.00
  Q 478.11 316.45 443.13 335.86
  C 389.04 365.88 372.85 439.27 393.64 494.39
  Q 409.65 536.87 448.23 558.51
  C 460.46 565.37 475.17 570.31 488.24 572.25
  C 519.31 576.85 552.52 571.23 578.41 553.99
  C 609.48 533.28 627.92 498.33 631.54 461.52
  Q 633.28 443.80 631.17 425.77
  C 627.18 391.68 609.71 359.97 581.36 340.39
  Z"
/>
<path fill="#e4e3df" d="
  M 581.36 340.39
  C 609.71 359.97 627.18 391.68 631.17 425.77
  Q 633.28 443.80 631.54 461.52
  C 627.92 498.33 609.48 533.28 578.41 553.99
  C 552.52 571.23 519.31 576.85 488.24 572.25
  C 475.17 570.31 460.46 565.37 448.23 558.51
  Q 409.65 536.87 393.64 494.39
  C 372.85 439.27 389.04 365.88 443.13 335.86
  Q 478.11 316.45 518.00 319.00
  Q 535.62 320.13 553.28 326.46
  Q 569.71 332.35 581.36 340.39
  Z"
/>
</svg>
