<?xml version="1.0" encoding="UTF-8" standalone="no"?>
<svg
   version="1.1"
   viewBox="0.00 0.00 1536.00 1024.00"
   id="svg5"
   sodipodi:docname="logo (1).svg"
   inkscape:version="1.4.2 (ebf0e940, 2025-05-08)"
   xmlns:inkscape="http://www.inkscape.org/namespaces/inkscape"
   xmlns:sodipodi="http://sodipodi.sourceforge.net/DTD/sodipodi-0.dtd"
   xmlns="http://www.w3.org/2000/svg"
   xmlns:svg="http://www.w3.org/2000/svg">
  <defs
     id="defs5" />
  <sodipodi:namedview
     id="namedview5"
     pagecolor="#ffffff"
     bordercolor="#000000"
     borderopacity="0.25"
     inkscape:showpageshadow="2"
     inkscape:pageopacity="0.0"
     inkscape:pagecheckerboard="0"
     inkscape:deskcolor="#d1d1d1"
     inkscape:zoom="0.32178355"
     inkscape:cx="633.96652"
     inkscape:cy="453.72114"
     inkscape:window-width="1064"
     inkscape:window-height="681"
     inkscape:window-x="0"
     inkscape:window-y="25"
     inkscape:window-maximized="0"
     inkscape:current-layer="svg5" />
  <path
     fill="#ffffff"
     fill-opacity="0.996"
     d="   M 613.35 561.55   L 613.35 582.35   A 0.70 0.70 0.0 0 1 612.67 583.05   Q 602.95 583.23 596.00 581.52   Q 572.94 575.87 563.57 555.45   C 559.12 545.74 558.31 535.66 558.36 523.61   Q 558.37 520.31 558.37 335.38   A 0.42 0.42 0.0 0 1 558.79 334.96   L 585.66 334.96   A 0.78 0.78 0.0 0 1 586.44 335.74   Q 586.45 517.06 586.51 530.75   C 586.56 542.53 589.54 554.23 601.49 559.30   Q 605.09 560.83 612.67 560.87   A 0.68 0.68 0.0 0 1 613.35 561.55   Z"
     id="path1"
     style="fill:#280b0b" />
  <path
     fill="#ffffff"
     fill-opacity="0.996"
     d="   M 917.64 559.14   C 916.67 559.91 916.23 561.02 915.44 561.83   C 903.08 574.52 887.86 582.22 870.03 584.00   Q 849.34 586.06 829.14 577.86   Q 823.98 575.77 816.15 570.46   Q 809.81 566.16 804.83 560.56   Q 779.87 532.50 783.59 494.98   C 785.49 475.77 795.81 456.80 810.47 443.85   Q 835.52 421.72 871.91 425.64   Q 874.86 425.95 881.23 427.55   C 894.89 430.98 909.05 438.95 917.28 450.49   A 0.34 0.34 0.0 0 0 917.90 450.29   L 917.90 428.92   A 0.77 0.76 -0.0 0 1 918.67 428.16   L 941.90 428.16   A 0.66 0.66 0.0 0 1 942.56 428.82   L 942.56 579.27   A 0.61 0.61 0.0 0 1 941.95 579.88   L 918.54 579.88   A 0.58 0.57 0.0 0 1 917.96 579.31   L 917.96 559.29   A 0.20 0.19 -19.7 0 0 917.64 559.14   Z   M 861.6877 447.3826   A 57.41 55.21 -91.2 0 0 807.6921 505.9362   A 57.41 55.21 -91.2 0 0 864.0923 562.1774   A 57.41 55.21 -91.2 0 0 918.0879 503.6238   A 57.41 55.21 -91.2 0 0 861.6877 447.3826   Z"
     id="path2"
     style="fill:#280b0b" />
  <path
     fill="#ffffff"
     fill-opacity="0.996"
     d="   M 508.00 452.28   A 0.24 0.23 -64.3 0 0 508.42 452.13   L 508.42 428.68   A 0.50 0.50 0.0 0 1 508.92 428.18   L 531.60 428.18   A 0.33 0.33 0.0 0 1 531.93 428.51   Q 531.92 542.24 532.00 563.58   Q 532.06 578.26 530.41 585.56   C 523.56 615.90 498.32 637.04 467.95 640.89   Q 458.59 642.07 446.07 641.23   Q 434.50 640.44 424.74 636.60   C 404.63 628.67 389.12 614.32 382.25 593.69   A 0.29 0.28 80.3 0 1 382.51 593.31   L 407.39 593.31   A 1.17 1.17 0.0 0 1 408.42 593.93   Q 420.95 617.15 448.02 619.89   Q 461.21 621.23 474.08 617.32   C 492.37 611.76 505.19 595.22 507.67 576.41   Q 508.32 571.50 508.88 558.10   A 0.27 0.27 0.0 0 0 508.43 557.88   C 507.59 558.59 506.56 560.34 505.72 561.25   Q 492.55 575.62 474.39 581.57   Q 468.19 583.60 459.26 584.24   Q 445.36 585.25 433.85 582.58   Q 421.82 579.78 410.54 572.37   C 393.79 561.36 381.97 546.25 377.18 526.90   Q 367.13 486.29 390.97 454.40   Q 397.79 445.28 408.05 438.12   C 423.44 427.38 443.88 423.49 462.35 425.98   Q 475.99 427.82 487.70 434.73   Q 500.03 442.00 508.00 452.28   Z   M 399.03 509.59   C 401.32 536.73 421.51 560.98 449.67 562.01   C 471.39 562.81 490.01 552.96 500.78 534.09   C 506.43 524.19 509.07 512.39 508.06 500.39   C 507.04 488.39 502.47 477.20 495.24 468.38   C 481.46 451.59 461.45 444.99 440.18 449.42   C 412.58 455.15 396.74 482.45 399.03 509.59   Z"
     id="path3"
     style="fill:#280b0b" />
  <path
     fill="#ffffff"
     fill-opacity="0.996"
     d="   M 992.00 441.36   Q 996.00 437.49 1002.77 433.00   C 1015.11 424.83 1031.81 423.70 1046.08 426.43   Q 1057.24 428.57 1066.10 434.91   C 1072.63 439.59 1077.83 444.31 1081.26 450.92   A 0.50 0.50 0.0 0 0 1082.13 450.95   Q 1088.98 439.85 1100.18 432.97   Q 1110.24 426.78 1124.39 425.47   C 1134.97 424.50 1147.23 425.62 1156.62 430.24   C 1159.27 431.54 1161.55 432.32 1163.90 433.90   C 1180.37 444.98 1189.28 460.89 1191.99 480.26   Q 1192.69 485.29 1192.69 495.28   Q 1192.69 520.43 1192.68 579.43   A 0.41 0.41 0.0 0 1 1192.27 579.84   L 1169.14 579.84   A 0.43 0.43 0.0 0 1 1168.71 579.41   Q 1168.71 576.55 1168.62 489.32   C 1168.60 472.73 1159.65 455.05 1142.93 450.05   C 1130.78 446.41 1115.04 447.42 1105.13 456.07   Q 1099.40 461.07 1096.92 465.90   Q 1092.03 475.44 1092.00 487.25   Q 1091.93 517.14 1092.13 579.15   A 0.72 0.72 0.0 0 1 1091.41 579.87   L 1067.90 579.87   A 0.55 0.54 90.0 0 1 1067.36 579.32   Q 1067.43 518.62 1067.38 486.25   Q 1067.36 470.12 1056.81 458.72   Q 1053.41 455.04 1047.30 451.69   C 1035.61 445.28 1015.70 447.10 1005.69 455.92   Q 999.08 461.74 996.46 468.68   Q 993.20 477.30 992.97 482.28   Q 992.64 489.80 992.66 496.25   Q 992.72 515.22 992.67 579.45   A 0.40 0.40 0.0 0 1 992.27 579.85   L 969.33 579.85   A 0.65 0.64 -0.0 0 1 968.68 579.21   L 968.68 428.52   A 0.35 0.35 0.0 0 1 969.03 428.17   L 991.01 428.17   A 0.53 0.53 0.0 0 1 991.54 428.70   L 991.54 441.17   A 0.27 0.27 0.0 0 0 992.00 441.36   Z"
     id="path4"
     style="fill:#280b0b" />
  <path
     fill="#ffffff"
     fill-opacity="0.996"
     d="   M 756.96 522.95   L 756.96 560.21   A 1.33 1.33 0.0 0 1 756.57 561.15   Q 738.09 579.42 712.76 583.70   Q 704.06 585.17 689.25 584.64   Q 672.78 584.06 657.12 575.49   Q 631.96 561.72 620.94 534.96   Q 615.73 522.32 615.37 506.46   Q 614.68 475.88 633.95 452.73   Q 648.94 434.73 670.25 428.60   Q 691.87 422.38 713.94 428.07   Q 737.99 434.27 754.63 454.61   Q 756.83 457.29 757.21 458.54   A 1.09 1.07 -30.4 0 1 756.92 459.63   L 661.67 551.06   A 0.49 0.49 0.0 0 0 661.69 551.78   C 668.94 558.12 678.38 562.36 688.56 563.37   Q 716.39 566.15 737.58 548.49   Q 742.94 544.02 750.25 533.90   C 752.52 530.77 754.64 526.50 756.59 522.86   A 0.20 0.20 0.0 0 1 756.96 522.95   Z   M 647.68 532.92   Q 680.65 500.02 719.67 463.43   Q 722.13 461.12 725.22 458.93   A 0.55 0.55 0.0 0 0 725.23 458.04   C 716.23 451.43 705.44 448.57 694.49 448.09   C 666.00 446.85 644.75 468.78 640.89 496.25   C 639.17 508.51 641.79 521.25 646.61 532.71   A 0.66 0.66 0.0 0 0 647.68 532.92   Z"
     id="path5"
     style="fill:#280b0b" />
</svg>
